<svg xmlns="http://www.w3.org/2000/svg" viewBox="10.7 15.6 218.6 228.8" width="218.6" height="228.8"><defs>
    <linearGradient id="gM" gradientUnits="userSpaceOnUse" x1="-6.28" y1="162.41" x2="246.28" y2="97.59">
      <stop offset="0" stop-color="#8F3094"></stop><stop offset="0.5" stop-color="#6C6097"></stop><stop offset="1" stop-color="#3D81C0"></stop>
    </linearGradient>
    <filter id="glM" x="-30%" y="-30%" width="160%" height="160%"><feGaussianBlur stdDeviation="2.3"></feGaussianBlur></filter>
    <filter id="hgM" x="-150%" y="-150%" width="400%" height="400%"><feGaussianBlur stdDeviation="3"></feGaussianBlur></filter></defs><g stroke-linecap="round" stroke-linejoin="round">
      <g stroke="url(#gM)" stroke-width="3.8" fill="none" opacity="0.38" filter="url(#glM)"><line x1="188.14" y1="48.8" x2="140.97" y2="35.59"></line><line x1="140.97" y1="35.59" x2="85.76" y2="58.45"></line><line x1="85.76" y1="58.45" x2="43.59" y2="108.7"></line><line x1="43.59" y1="108.7" x2="30.67" y2="167.05"></line><line x1="30.67" y1="167.05" x2="51.86" y2="211.2"></line><line x1="51.86" y1="211.2" x2="44.75" y2="200.01"></line><line x1="44.75" y1="200.01" x2="57.17" y2="152.99"></line><line x1="57.17" y1="152.99" x2="79.83" y2="122.41"></line><line x1="79.83" y1="122.41" x2="110.31" y2="121.87"></line><line x1="110.31" y1="121.87" x2="140.78" y2="121.33"></line><line x1="140.78" y1="121.33" x2="163.45" y2="90.74"></line><line x1="163.45" y1="90.74" x2="175.87" y2="43.73"></line><line x1="175.87" y1="43.73" x2="188.14" y2="48.8"></line><line x1="127.95" y1="74.01" x2="188.14" y2="48.8"></line><line x1="127.95" y1="74.01" x2="140.97" y2="35.59"></line><line x1="127.95" y1="74.01" x2="85.76" y2="58.45"></line><line x1="48.62" y1="132.77" x2="43.59" y2="108.7"></line><line x1="48.62" y1="132.77" x2="30.67" y2="167.05"></line><line x1="48.62" y1="132.77" x2="51.86" y2="211.2"></line><line x1="48.62" y1="132.77" x2="44.75" y2="200.01"></line><line x1="48.62" y1="132.77" x2="57.17" y2="152.99"></line><line x1="48.62" y1="132.77" x2="79.83" y2="122.41"></line><line x1="127.95" y1="74.01" x2="110.31" y2="121.87"></line><line x1="127.95" y1="74.01" x2="140.78" y2="121.33"></line><line x1="127.95" y1="74.01" x2="163.45" y2="90.74"></line><line x1="127.95" y1="74.01" x2="175.87" y2="43.73"></line><line x1="127.95" y1="74.01" x2="48.62" y2="132.77"></line><line x1="51.86" y1="211.2" x2="99.03" y2="224.41"></line><line x1="99.03" y1="224.41" x2="154.24" y2="201.55"></line><line x1="154.24" y1="201.55" x2="196.41" y2="151.3"></line><line x1="196.41" y1="151.3" x2="209.33" y2="92.95"></line><line x1="209.33" y1="92.95" x2="188.14" y2="48.8"></line><line x1="188.14" y1="48.8" x2="195.25" y2="59.99"></line><line x1="195.25" y1="59.99" x2="182.83" y2="107.01"></line><line x1="182.83" y1="107.01" x2="160.17" y2="137.59"></line><line x1="160.17" y1="137.59" x2="129.69" y2="138.13"></line><line x1="129.69" y1="138.13" x2="99.22" y2="138.67"></line><line x1="99.22" y1="138.67" x2="76.55" y2="169.26"></line><line x1="76.55" y1="169.26" x2="64.13" y2="216.27"></line><line x1="64.13" y1="216.27" x2="51.86" y2="211.2"></line><line x1="112.05" y1="185.99" x2="51.86" y2="211.2"></line><line x1="112.05" y1="185.99" x2="99.03" y2="224.41"></line><line x1="112.05" y1="185.99" x2="154.24" y2="201.55"></line><line x1="191.38" y1="127.23" x2="196.41" y2="151.3"></line><line x1="191.38" y1="127.23" x2="209.33" y2="92.95"></line><line x1="191.38" y1="127.23" x2="188.14" y2="48.8"></line><line x1="191.38" y1="127.23" x2="195.25" y2="59.99"></line><line x1="191.38" y1="127.23" x2="182.83" y2="107.01"></line><line x1="191.38" y1="127.23" x2="160.17" y2="137.59"></line><line x1="112.05" y1="185.99" x2="129.69" y2="138.13"></line><line x1="112.05" y1="185.99" x2="99.22" y2="138.67"></line><line x1="112.05" y1="185.99" x2="76.55" y2="169.26"></line><line x1="112.05" y1="185.99" x2="64.13" y2="216.27"></line><line x1="112.05" y1="185.99" x2="191.38" y2="127.23"></line></g>
      <g stroke="url(#gM)" stroke-width="2.1" fill="none"><line x1="188.14" y1="48.8" x2="140.97" y2="35.59"></line><line x1="140.97" y1="35.59" x2="85.76" y2="58.45"></line><line x1="85.76" y1="58.45" x2="43.59" y2="108.7"></line><line x1="43.59" y1="108.7" x2="30.67" y2="167.05"></line><line x1="30.67" y1="167.05" x2="51.86" y2="211.2"></line><line x1="51.86" y1="211.2" x2="44.75" y2="200.01"></line><line x1="44.75" y1="200.01" x2="57.17" y2="152.99"></line><line x1="57.17" y1="152.99" x2="79.83" y2="122.41"></line><line x1="79.83" y1="122.41" x2="110.31" y2="121.87"></line><line x1="110.31" y1="121.87" x2="140.78" y2="121.33"></line><line x1="140.78" y1="121.33" x2="163.45" y2="90.74"></line><line x1="163.45" y1="90.74" x2="175.87" y2="43.73"></line><line x1="175.87" y1="43.73" x2="188.14" y2="48.8"></line><line x1="127.95" y1="74.01" x2="188.14" y2="48.8"></line><line x1="127.95" y1="74.01" x2="140.97" y2="35.59"></line><line x1="127.95" y1="74.01" x2="85.76" y2="58.45"></line><line x1="48.62" y1="132.77" x2="43.59" y2="108.7"></line><line x1="48.62" y1="132.77" x2="30.67" y2="167.05"></line><line x1="48.62" y1="132.77" x2="51.86" y2="211.2"></line><line x1="48.62" y1="132.77" x2="44.75" y2="200.01"></line><line x1="48.62" y1="132.77" x2="57.17" y2="152.99"></line><line x1="48.62" y1="132.77" x2="79.83" y2="122.41"></line><line x1="127.95" y1="74.01" x2="110.31" y2="121.87"></line><line x1="127.95" y1="74.01" x2="140.78" y2="121.33"></line><line x1="127.95" y1="74.01" x2="163.45" y2="90.74"></line><line x1="127.95" y1="74.01" x2="175.87" y2="43.73"></line><line x1="127.95" y1="74.01" x2="48.62" y2="132.77"></line><line x1="51.86" y1="211.2" x2="99.03" y2="224.41"></line><line x1="99.03" y1="224.41" x2="154.24" y2="201.55"></line><line x1="154.24" y1="201.55" x2="196.41" y2="151.3"></line><line x1="196.41" y1="151.3" x2="209.33" y2="92.95"></line><line x1="209.33" y1="92.95" x2="188.14" y2="48.8"></line><line x1="188.14" y1="48.8" x2="195.25" y2="59.99"></line><line x1="195.25" y1="59.99" x2="182.83" y2="107.01"></line><line x1="182.83" y1="107.01" x2="160.17" y2="137.59"></line><line x1="160.17" y1="137.59" x2="129.69" y2="138.13"></line><line x1="129.69" y1="138.13" x2="99.22" y2="138.67"></line><line x1="99.22" y1="138.67" x2="76.55" y2="169.26"></line><line x1="76.55" y1="169.26" x2="64.13" y2="216.27"></line><line x1="64.13" y1="216.27" x2="51.86" y2="211.2"></line><line x1="112.05" y1="185.99" x2="51.86" y2="211.2"></line><line x1="112.05" y1="185.99" x2="99.03" y2="224.41"></line><line x1="112.05" y1="185.99" x2="154.24" y2="201.55"></line><line x1="191.38" y1="127.23" x2="196.41" y2="151.3"></line><line x1="191.38" y1="127.23" x2="209.33" y2="92.95"></line><line x1="191.38" y1="127.23" x2="188.14" y2="48.8"></line><line x1="191.38" y1="127.23" x2="195.25" y2="59.99"></line><line x1="191.38" y1="127.23" x2="182.83" y2="107.01"></line><line x1="191.38" y1="127.23" x2="160.17" y2="137.59"></line><line x1="112.05" y1="185.99" x2="129.69" y2="138.13"></line><line x1="112.05" y1="185.99" x2="99.22" y2="138.67"></line><line x1="112.05" y1="185.99" x2="76.55" y2="169.26"></line><line x1="112.05" y1="185.99" x2="64.13" y2="216.27"></line><line x1="112.05" y1="185.99" x2="191.38" y2="127.23"></line></g>
      <circle cx="127.95" cy="74.01" r="10" fill="url(#gM)" filter="url(#hgM)" opacity="0.5"></circle><circle cx="48.62" cy="132.77" r="10" fill="url(#gM)" filter="url(#hgM)" opacity="0.5"></circle><circle cx="112.05" cy="185.99" r="10" fill="url(#gM)" filter="url(#hgM)" opacity="0.5"></circle><circle cx="191.38" cy="127.23" r="10" fill="url(#gM)" filter="url(#hgM)" opacity="0.5"></circle><circle cx="127.95" cy="74.01" r="7" fill="url(#gM)"></circle><circle cx="127.95" cy="74.01" r="7" fill="none" stroke="#fff" stroke-width="0.8" opacity="0.22"></circle><circle cx="48.62" cy="132.77" r="7" fill="url(#gM)"></circle><circle cx="48.62" cy="132.77" r="7" fill="none" stroke="#fff" stroke-width="0.8" opacity="0.22"></circle><circle cx="112.05" cy="185.99" r="7" fill="url(#gM)"></circle><circle cx="112.05" cy="185.99" r="7" fill="none" stroke="#fff" stroke-width="0.8" opacity="0.22"></circle><circle cx="191.38" cy="127.23" r="7" fill="url(#gM)"></circle><circle cx="191.38" cy="127.23" r="7" fill="none" stroke="#fff" stroke-width="0.8" opacity="0.22"></circle>
    </g></svg>
